<svg xmlns="http://www.w3.org/2000/svg" xmlns:xlink="http://www.w3.org/1999/xlink" version="1.1" x="0px" y="0px" enable-background="new 0 0 64 64" xml:space="preserve" style="display: none;">
    <defs>
      <symbol id="bookPen" viewBox="0 0 64 64">
        <title>Book Pen</title>
        <rect x="1" y="1" fill="none" stroke-width="2" stroke-miterlimit="10" width="46" height="62"/>
        <line fill="none" stroke-width="2" stroke-miterlimit="10" x1="9" y1="63" x2="9" y2="2"/>
        <line fill="none" stroke-width="2" stroke-miterlimit="10" x1="14" y1="15" x2="42" y2="15"/>
        <line fill="none" stroke-width="2" stroke-miterlimit="10" x1="14" y1="21" x2="42" y2="21"/>
        <polygon fill="none" stroke-width="2" stroke-miterlimit="10" points="63,3 63,53 59,61 55,53 55,3 "/>
        <polyline fill="none" stroke-width="2" stroke-miterlimit="10" points="55,7 51,7 51,17 "/>
      </symbol>

      <symbol id="laptop" viewBox="0 0 64 64">
        <title>Laptop</title>
        <rect x="8" y="12" fill="none" stroke-width="2" stroke-miterlimit="10" width="48" height="34"/>
        <rect x="1" y="46" fill="none" stroke-width="2" stroke-miterlimit="10" width="62" height="6"/>
        <line fill="none" stroke-width="2" stroke-miterlimit="10" x1="34" y1="16" x2="30" y2="16"/>
      </symbol>

      <symbol id="magnifier" viewBox="0 0 64 64">
        <title>Magnifier</title>
          <line fill="none" stroke-width="2" stroke-miterlimit="10" x1="12" y1="21" x2="30" y2="21"/>
          <line fill="none" stroke-width="2" stroke-miterlimit="10" x1="21" y1="12" x2="21" y2="30"/>
          <circle fill="none" stroke-width="2" stroke-miterlimit="10" cx="21" cy="21" r="20"/>
          <line fill="none" stroke-width="2" stroke-miterlimit="10" x1="35" y1="35" x2="41" y2="41"/>
          <rect x="46.257" y="37.065" transform="matrix(-0.7071 0.7071 -0.7071 -0.7071 121.9178 50.5)" fill="none" stroke-width="2" stroke-miterlimit="10" width="8.485" height="26.87"/>
      </symbol>

      <symbol id="checkbox" viewBox="0 0 448 512">
        <title>Checkbox</title>
        <path d="M400 32H48C21.49 32 0 53.49 0 80v352c0 26.51 21.49 48 48 48h352c26.51 0 48-21.49 48-48V80c0-26.51-21.49-48-48-48zm0 400H48V80h352v352zm-35.864-241.724L191.547 361.48c-4.705 4.667-12.303 4.637-16.97-.068l-90.781-91.516c-4.667-4.705-4.637-12.303.069-16.971l22.719-22.536c4.705-4.667 12.303-4.637 16.97.069l59.792 60.277 141.352-140.216c4.705-4.667 12.303-4.637 16.97.068l22.536 22.718c4.667 4.706 4.637 12.304-.068 16.971z"/>
      </symbol>

      <symbol id="webpage" viewBox="0 0 64 64">
        <title>Webpage</title>
        <rect x="1" y="15" fill="none" stroke-width="2" stroke-miterlimit="10" width="54" height="42"/>
        <polyline fill="none" stroke-width="2" stroke-miterlimit="10" points="11,12 11,7 63,7 63,50 58,50 	"/>
        <line fill="none" stroke-width="2" stroke-miterlimit="10" x1="1" y1="23" x2="55" y2="23"/>
        <line fill="none" stroke-width="2" stroke-miterlimit="10" x1="10" y1="19" x2="6" y2="19"/>
        <line fill="none" stroke-width="2" stroke-miterlimit="10" x1="18" y1="19" x2="14" y2="19"/>
        <line fill="none" stroke-width="2" stroke-miterlimit="10" x1="26" y1="19" x2="22" y2="19"/>
      </symbol>

      <symbol id="eheart" viewBox="0 0 512 512">
        <title>Empty Heart</title>
        <path d="M458.4 64.3C400.6 15.7 311.3 23 256 79.3 200.7 23 111.4 15.6 53.6 64.3-21.6 127.6-10.6 230.8 43 285.5l175.4 178.7c10 10.2 23.4 15.9 37.6 15.9 14.3 0 27.6-5.6 37.6-15.8L469 285.6c53.5-54.7 64.7-157.9-10.6-221.3zm-23.6 187.5L259.4 430.5c-2.4 2.4-4.4 2.4-6.8 0L77.2 251.8c-36.5-37.2-43.9-107.6 7.3-150.7 38.9-32.7 98.9-27.8 136.5 10.5l35 35.7 35-35.7c37.8-38.5 97.8-43.2 136.5-10.6 51.1 43.1 43.5 113.9 7.3 150.8z"/>
      </symbol>

      <symbol id="heart" viewBox="0 0 512 512">
        <title>Full Heart</title>
        <path d="M462.3 62.6C407.5 15.9 326 24.3 275.7 76.2L256 96.5l-19.7-20.3C186.1 24.3 104.5 15.9 49.7 62.6c-62.8 53.6-66.1 149.8-9.9 207.9l193.5 199.8c12.5 12.9 32.8 12.9 45.3 0l193.5-199.8c56.3-58.1 53-154.3-9.8-207.9z"/>
      </symbol>

      <symbol id="dqoute" viewBox="0 0 512 512">
        <title>Double Qoute</title>
        <path d="M464 32H336c-26.5 0-48 21.5-48 48v128c0 26.5 21.5 48 48 48h80v64c0 35.3-28.7 64-64 64h-8c-13.3 0-24 10.7-24 24v48c0 13.3 10.7 24 24 24h8c88.4 0 160-71.6 160-160V80c0-26.5-21.5-48-48-48zm-288 0H48C21.5 32 0 53.5 0 80v128c0 26.5 21.5 48 48 48h80v64c0 35.3-28.7 64-64 64h-8c-13.3 0-24 10.7-24 24v48c0 13.3 10.7 24 24 24h8c88.4 0 160-71.6 160-160V80c0-26.5-21.5-48-48-48z"/>
      </symbol>

      <symbol id="phone" viewBox="0 0 512 512">
        <title>Phone</title>
        <path d="M493.4 24.6l-104-24c-11.3-2.6-22.9 3.3-27.5 13.9l-48 112c-4.2 9.8-1.4 21.3 6.9 28l60.6 49.6c-36 76.7-98.9 140.5-177.2 177.2l-49.6-60.6c-6.8-8.3-18.2-11.1-28-6.9l-112 48C3.9 366.5-2 378.1.6 389.4l24 104C27.1 504.2 36.7 512 48 512c256.1 0 464-207.5 464-464 0-11.2-7.7-20.9-18.6-23.4z"/>
      </symbol>

      <symbol id="mapMarker" viewBox="0 0 384 512">
        <title>Map Marker</title>
        <path d="M172.268 501.67C26.97 291.031 0 269.413 0 192 0 85.961 85.961 0 192 0s192 85.961 192 192c0 77.413-26.97 99.031-172.268 309.67-9.535 13.774-29.93 13.773-39.464 0z"/>
      </symbol>

      <symbol id="mail" viewBox="0 0 512 512">
        <title>Mail</title>
        <path d="M502.3 190.8c3.9-3.1 9.7-.2 9.7 4.7V400c0 26.5-21.5 48-48 48H48c-26.5 0-48-21.5-48-48V195.6c0-5 5.7-7.8 9.7-4.7 22.4 17.4 52.1 39.5 154.1 113.6 21.1 15.4 56.7 47.8 92.2 47.6 35.7.3 72-32.8 92.3-47.6 102-74.1 131.6-96.3 154-113.7zM256 320c23.2.4 56.6-29.2 73.4-41.4 132.7-96.3 142.8-104.7 173.4-128.7 5.8-4.5 9.2-11.5 9.2-18.9v-19c0-26.5-21.5-48-48-48H48C21.5 64 0 85.5 0 112v19c0 7.4 3.4 14.3 9.2 18.9 30.6 23.9 40.7 32.4 173.4 128.7 16.8 12.2 50.2 41.8 73.4 41.4z"/>
      </symbol>

      <symbol id="twitter" viewBox="0 0 512 512">
        <title>Twitter Icon</title>
        <path d="M459.37 151.716c.325 4.548.325 9.097.325 13.645 0 138.72-105.583 298.558-298.558 298.558-59.452 0-114.68-17.219-161.137-47.106 8.447.974 16.568 1.299 25.34 1.299 49.055 0 94.213-16.568 130.274-44.832-46.132-.975-84.792-31.188-98.112-72.772 6.498.974 12.995 1.624 19.818 1.624 9.421 0 18.843-1.3 27.614-3.573-48.081-9.747-84.143-51.98-84.143-102.985v-1.299c13.969 7.797 30.214 12.67 47.431 13.319-28.264-18.843-46.781-51.005-46.781-87.391 0-19.492 5.197-37.36 14.294-52.954 51.655 63.675 129.3 105.258 216.365 109.807-1.624-7.797-2.599-15.918-2.599-24.04 0-57.828 46.782-104.934 104.934-104.934 30.213 0 57.502 12.67 76.67 33.137 23.715-4.548 46.456-13.32 66.599-25.34-7.798 24.366-24.366 44.833-46.132 57.827 21.117-2.273 41.584-8.122 60.426-16.243-14.292 20.791-32.161 39.308-52.628 54.253z"/>
      </symbol>
    </defs>
  </svg>